<svg width="18" height="18" viewBox="0 0 24 24" xmlns="http://www.w3.org/2000/svg">
  <g id="SVGRepo_bgCarrier" stroke-width="0"></g>
  <g id="SVGRepo_tracerCarrier" stroke-linecap="round" stroke-linejoin="round"></g>
  <g id="SVGRepo_iconCarrier">
    <circle cx="12" cy="8.5" r="2.1" fill="#92A3AF"/>
    <path d="M16.2,16.4A4.2,4.2,0,0,0,12,12.2h0A4.2,4.2,0,0,0,7.8,16.4Z" fill="#92A3AF"/>
    <circle cx="18.2" cy="8.5" r="2.1" fill="#92A3AF"/>
    <path d="M17.6,16.4H22.4A4.2,4.2,0,0,0,18.2,12.2h0a4.2,4.2,0,0,0-2,0.5" fill="#92A3AF"/>
    <circle cx="5.8" cy="8.5" r="2.1" fill="#92A3AF"/>
    <path d="M6.4,16.4H1.6A4.2,4.2,0,0,1,5.8,12.2h0a4.2,4.2,0,0,1,2,0.5" fill="#92A3AF"/>
  </g>
</svg> 